<?xml version="1.0" encoding="UTF-8"?>
<svg xmlns="http://www.w3.org/2000/svg" viewBox="0 0 32 32" height="32px" width="32px">
    <path d="M26.5 7.5L25 6l-5 5V3.5L11 10H4v12h7l9 6.5V21l5 5 1.5-1.5c2.2-2.2 3.5-5.3 3.5-8.5s-1.2-6.3-3.5-8.5z" opacity=".4"></path>
    <path d="M18 7.5L12 12H6v8h6l6 4.5v-17zm4.2 4.3l-1.4 1.4c.7.7 1.2 1.7 1.2 2.8s-.4 2.1-1.2 2.8l1.4 1.4c1.1-1.1 1.8-2.6 1.8-4.2s-.7-3.2-1.8-4.2zm2.9-2.9l-1.4 1.4c1.4 1.4 2.3 3.4 2.3 5.7s-.9 4.2-2.3 5.7l1.4 1.4c1.8-1.8 2.9-4.3 2.9-7.1s-1.1-5.3-2.9-7.1z" fill="#fff"></path>
</svg>
