<?xml version="1.0" encoding="UTF-8"?>
<svg xmlns="http://www.w3.org/2000/svg"  viewBox="0 0 32 32">
    <path d="M25.9,6.1l-1.4-1.4l-4.2,4.2l1.4,1.4c3.1,3.1,3.1,8.2,0,11.3C20.1,23.2,18.1,24,16,24s-4.1-0.8-5.7-2.3 c-1.8-1.8-2.6-4.2-2.3-6.5l1.3,1.3l4.4-13.2L0.6,7.6l2.3,2.3l0.4,0.4C0.9,15.5,2,21.8,6.1,25.9C8.7,28.5,12.3,30,16,30 s7.3-1.5,9.9-4.1C31.4,20.4,31.4,11.6,25.9,6.1z" fill="rgba(0, 0, 0, .4)"></path>
    <path d="M23.1,8.9c3.9,3.9,3.9,10.2,0,14.1S12.9,26.9,9,23c-3.2-3.2-3.8-7.9-1.8-11.7l1.4,1.4l2.1-6.4 L4.3,8.5l1.4,1.4C3,14.5,3.6,20.5,7.5,24.5c4.7,4.7,12.3,4.7,17,0s4.7-12.3,0-17L23.1,8.9z" fill="#fff"></path>
</svg>
