<?xml version="1.0" encoding="UTF-8"?>
<svg xmlns="http://www.w3.org/2000/svg" viewBox="0 0 32 32">
    <path d="M27.5 23.3l1.1 1.1-4.2 4.2-4.4-4.4v4.3L11 22H4V10h1.8L3.2 7.4l4.2-4.2 5.5 5.5L20 3.5V11l5-5 1.5 1.5C28.8 9.7 30 12.8 30 16c0 2.7-.9 5.2-2.5 7.3z" opacity=".4"/>
    <path d="M25.1 8.9l-1.4 1.4c1.4 1.4 2.3 3.4 2.3 5.7 0 1.7-.5 3.2-1.3 4.4l1.4 1.4c1.2-1.6 1.9-3.7 1.9-5.9 0-2.7-1.1-5.2-2.9-7zm-3.4 8.6l1.5 1.5c.5-.9.8-1.9.8-2.9 0-1.6-.7-3.2-1.8-4.2l-1.4 1.4c.7.7 1.2 1.7 1.2 2.8 0 .4-.1.9-.3 1.4zM18 7.5l-3.6 2.7 3.6 3.6zM6 12v8h6l6 4.5v-2.3L7.8 12z" fill="#fff"/>
    <path transform="rotate(-45.001 15.9 15.9)" fill="#fff" d="M14.9 2.9h2v26h-2z"/>
</svg>
